<svg width="153" height="18" viewBox="0 0 153 18" fill="none" xmlns="http://www.w3.org/2000/svg">
<path d="M10.0759 6.89097H4.2422V0H0V18H4.2425V10.851H10.0762V17.9997H14.319V0H10.0759V6.89097ZM24.5903 6.94277L21.0643 0H16.2377L22.469 11.0824V17.9997H26.7119V11.0824L32.9432 0H28.1172L24.5903 6.94277ZM42.2864 0H34.8625V18H42.2864C44.8587 18 46.9797 17.1509 48.7036 15.4289C50.4269 13.7053 51.3021 11.5455 51.3021 9.00015C51.3021 6.45447 50.4269 4.32044 48.7036 2.59718C46.9797 0.874208 44.8587 0 42.2864 0ZM45.8399 12.6769C44.9387 13.5763 43.7452 14.0394 42.2864 14.0394H39.1044V3.95998H42.2864C43.7452 3.95998 44.9384 4.42253 45.8399 5.34824C46.7682 6.24849 47.2189 7.48286 47.2189 8.99985C47.2189 10.5171 46.7682 11.7515 45.8399 12.6769ZM67.8054 6.17155C67.8054 4.44888 67.195 3.00883 65.949 1.79991C64.7024 0.591288 63.2177 0 61.4413 0H54.0164V18H58.259V12.0856H60.2743L63.7746 17.9997H68.3348L64.3844 11.3913C66.4263 10.363 67.8054 8.35707 67.8054 6.17155ZM61.4416 8.4855H58.2593V3.85699H61.4416C62.6083 3.85699 63.5625 4.86054 63.5625 6.17155C63.5625 7.48286 62.6083 8.4855 61.4416 8.4855ZM75.3722 0L69.0619 18H73.702L74.6304 15.1714H81.5245L82.4522 18H87.093L80.7817 0H75.3722ZM75.9023 11.3141L78.077 4.70575L80.2513 11.3141H75.9023ZM96.0386 0H89.0114V18H93.2542V12.3428H96.0386C97.8678 12.3428 99.4059 11.7515 100.652 10.5429C101.899 9.33397 102.535 7.89422 102.535 6.17125C102.535 4.44858 101.899 3.00853 100.652 1.79961C99.4059 0.591288 97.8675 0 96.0386 0ZM96.0386 8.4855H93.2542V3.85699H96.0386C97.3377 3.85699 98.2929 4.86054 98.2929 6.17155C98.2926 7.48286 97.3377 8.4855 96.0386 8.4855ZM109.227 10.851H115.856V6.94277H109.227V3.95998H116.519V0H104.985V18H116.653V14.0394H109.227V10.851ZM124.352 0L118.041 18H122.682L123.61 15.1714H130.504L131.432 18H136.072L129.762 0H124.352ZM124.882 11.3141L127.057 4.70575L129.231 11.3141H124.882ZM146.476 8.76842L152.734 0H147.909L142.234 7.81698V0H137.992V18H142.234V9.66868L148.174 17.9997H153L146.476 8.76842Z" fill="#2C2C2C"/>
</svg>
