<svg width="35" height="35" viewBox="0 0 35 35" fill="none" xmlns="http://www.w3.org/2000/svg">
<path d="M17.0984 34.2342C12.8367 34.234 8.72907 32.6402 5.58262 29.7659C2.43616 26.8915 0.478317 22.9445 0.09375 18.7002C0.453747 19.4508 0.700347 20.2284 1.01535 20.9862C2.08127 23.5607 3.88128 25.7647 6.19106 27.3234C8.50084 28.8821 11.2183 29.7266 14.0046 29.7516C16.791 29.7766 19.5232 28.9811 21.8606 27.4642C24.198 25.9473 26.0374 23.776 27.1494 21.221C28.2614 18.666 28.5969 15.8403 28.1141 13.0959C27.6313 10.3515 26.3516 7.8099 24.4344 5.78779C22.5172 3.76569 20.0473 2.3525 17.3325 1.72435C14.6177 1.0962 11.7781 1.28087 9.1676 2.25533C9.5666 1.87152 10.0436 1.57808 10.5662 1.39493C12.8971 0.432204 15.4125 -0.00193145 17.9313 0.123744C20.4501 0.249414 22.9097 0.931784 25.1333 2.12175C27.3568 3.31172 29.289 4.97971 30.7908 7.00573C32.2926 9.03175 33.3267 11.3655 33.8187 13.839C34.3107 16.3124 34.2484 18.8642 33.6363 21.3107C33.0241 23.7573 31.8774 26.0377 30.2785 27.988C28.6796 29.9383 26.6683 31.51 24.3893 32.59C22.1103 33.6701 19.6203 34.2316 17.0984 34.2342Z" fill="#FBF6BD"/>
<path d="M17.0874 0.187205C20.3769 0.188235 23.5951 1.14556 26.3503 2.94263C29.1055 4.7397 31.2788 7.299 32.6057 10.3089C33.9326 13.3189 34.3558 16.6497 33.8238 19.8959C33.2918 23.142 31.8276 26.1635 29.6093 28.5925C27.3911 31.0215 24.5145 32.7532 21.3299 33.5768C18.1452 34.4004 14.7897 34.2804 11.672 33.2314C8.55426 32.1824 5.80876 30.2497 3.76969 27.6684C1.73063 25.0872 0.485953 21.9688 0.187203 18.693C0.778213 21.3189 2.0989 23.7244 3.99717 25.6326C5.89545 27.5408 8.2941 28.874 10.9169 29.4787C13.5397 30.0834 16.28 29.935 18.8221 29.0505C21.3642 28.1661 23.6048 26.5816 25.2859 24.4795C26.9669 22.3774 28.02 19.8433 28.324 17.1689C28.6279 14.4945 28.1702 11.7887 27.0037 9.36303C25.8372 6.93738 24.0092 4.89053 21.7304 3.45823C19.4515 2.02593 16.8144 1.26643 14.1228 1.26721C12.421 1.26653 10.7328 1.57136 9.13855 2.16721C9.61015 1.92061 10.107 1.68301 10.602 1.48141C12.6561 0.628626 14.858 0.188855 17.082 0.187205H17.0874ZM17.082 0.0072004C14.8312 0.0054884 12.6024 0.450275 10.5246 1.31581C10.0242 1.52281 9.52555 1.75681 9.04499 2.01061L9.19795 2.35261C11.8866 1.34996 14.8172 1.19173 17.5981 1.89907C20.379 2.60641 22.8778 4.14563 24.7606 6.31103C26.6434 8.47643 27.8204 11.1648 28.1345 14.0171C28.4486 16.8693 27.8847 19.7494 26.5182 22.2726C25.1517 24.7958 23.0476 26.8419 20.4873 28.1373C17.9269 29.4328 15.0321 29.916 12.1898 29.5224C9.34735 29.1288 6.69289 27.8771 4.58093 25.9345C2.46898 23.992 1.00017 21.4512 0.370803 18.6516L0 18.711C0.300573 22.0256 1.55851 25.1814 3.62062 27.7939C5.68274 30.4063 8.46003 32.3628 11.6143 33.425C14.7685 34.4872 18.1635 34.6092 21.3859 33.7763C24.6082 32.9433 27.5189 31.1914 29.7633 28.7337C32.0076 26.2761 33.489 23.2188 34.0268 19.9343C34.5646 16.6498 34.1357 13.2797 32.7924 10.2346C31.449 7.18952 29.2492 4.60073 26.4608 2.78357C23.6724 0.966405 20.4157 -0.000712606 17.0874 3.93956e-07L17.082 0.0072004Z" fill="#5F2521"/>
<path d="M10.9798 32.9113C10.4629 32.7572 9.96101 32.5566 9.48041 32.3119C9.40481 31.8618 9.10597 31.5612 8.65597 31.3362C8.28157 31.1868 7.90537 31.1112 7.60477 31.2624C7.37256 31.1281 7.16893 30.9495 7.00537 30.7368C7.77149 30.4901 8.60273 30.5435 9.33101 30.8862C9.75031 31.0634 10.1198 31.3406 10.4073 31.6936C10.6947 32.0467 10.8913 32.4647 10.9798 32.9113Z" fill="#FDD783"/>
<path d="M27.5544 3.81442C27.5404 4.04605 27.4893 4.27392 27.4032 4.48941C27.3245 4.69513 27.2047 4.88265 27.0511 5.04049C26.8975 5.19833 26.7133 5.32318 26.5098 5.40741C26.3062 5.49165 26.0877 5.53349 25.8674 5.5304C25.6472 5.5273 25.4299 5.47934 25.2289 5.38942C24.4045 5.08882 24.1039 4.03942 24.4801 3.21503C24.7051 2.76503 25.0039 2.46442 25.3801 2.39062C25.5149 2.44788 25.6414 2.52296 25.7563 2.61383C25.4557 2.61383 25.0813 2.91443 24.9319 3.21503C24.8618 3.33071 24.8176 3.46022 24.8025 3.59463C24.7873 3.72905 24.8016 3.86515 24.8442 3.99352C24.8868 4.12189 24.9568 4.23949 25.0493 4.33816C25.1418 4.43683 25.2547 4.51424 25.3801 4.56502C25.8301 4.79002 26.4312 4.56501 26.6562 3.96381C26.7229 3.85212 26.7641 3.72711 26.7768 3.59767C26.7896 3.46824 26.7736 3.33758 26.73 3.21503C27.0342 3.37104 27.3123 3.57324 27.5544 3.81442Z" fill="#FDD783"/>
<path d="M18.7797 31.7865C18.3297 32.9115 16.6053 33.2859 14.9547 32.5371C13.6047 31.9359 12.7803 30.8127 12.8559 29.7615C13.4553 29.8371 13.9809 29.9127 14.5047 29.8371C14.3553 30.4365 14.9547 31.1871 15.7809 31.5615C16.7547 32.0115 17.8059 31.7865 18.1047 31.0377C18.3297 30.5121 18.1047 29.9127 17.5809 29.4627C17.7303 29.3871 17.8797 29.3871 18.0309 29.3115C18.8553 30.0621 19.1541 31.0377 18.7797 31.7865Z" fill="#FDD783"/>
<path d="M29.8603 16.1873C29.4103 16.4123 28.8847 16.4123 28.3609 16.3385C28.5103 15.5123 28.4347 14.7635 28.3609 13.9391C28.6599 14.026 28.9806 13.999 29.2609 13.8635C30.3859 13.4135 30.8359 11.9141 30.3103 10.4885C29.7847 9.13849 28.3609 8.38789 27.2359 8.83969C27.0847 8.91349 27.0109 8.98909 26.8597 9.06289C26.7109 8.76409 26.5609 8.46409 26.4097 8.16289V8.08909C26.4505 8.04803 26.5036 8.02148 26.5609 8.01349C28.4347 7.33849 30.6109 8.53909 31.5091 10.7891C32.4073 13.0391 31.7359 15.4385 29.8603 16.1873Z" fill="#FDD783"/>
<path d="M32.7279 23.6126C32.4291 24.5882 31.9035 25.4882 31.3779 26.3126C30.5535 24.887 28.5285 24.5126 26.7285 25.4882C25.0041 26.462 24.1797 28.4114 25.0041 29.837C25.3047 30.512 25.9797 30.962 26.7285 31.1114C26.2238 31.5071 25.6694 31.8351 25.0797 32.087C24.6297 31.7864 24.3291 31.3364 24.0303 30.8864C22.7541 28.5626 24.0303 25.4126 26.8797 23.8376C28.9047 22.7126 31.1547 22.7126 32.7279 23.6126Z" fill="#FDD783"/>
<path d="M19.1357 22.617L25.0253 15.2856C26.1449 15.3918 25.7885 16.2738 25.7885 16.2738L20.1059 23.3712" fill="#FBF6BD"/>
<path d="M22.097 29.7344L13.3472 20.7632L15.7952 22.583L14.8394 21.1934L16.1138 22.1366C16.9094 20.9486 17.6186 21.1808 17.6186 21.1808L24.6512 27.8408C24.6512 27.8408 24.7214 30.0908 22.097 29.7344Z" fill="#FBF6BD"/>
<path d="M25.5349 16.5906C25.1641 16.0056 25.0435 16.164 25.0093 16.263C24.9751 16.362 23.4865 18.1764 23.4865 18.1764L23.2471 17.604L24.5071 15.9336L25.0291 15.2856C25.0291 15.2856 25.4233 15.2226 25.6159 15.48C25.7406 15.6829 25.8129 15.9136 25.8265 16.1514L25.5385 16.5906" fill="#CE4E25"/>
<path d="M22.8115 20.0433C22.4713 19.4385 22.3435 19.5915 22.3021 19.6833C22.2607 19.7751 20.6821 21.5139 20.6821 21.5139L20.4751 20.9433L21.8161 19.3413L22.3723 18.7221C22.3723 18.7221 22.7683 18.6807 22.9465 18.9471C23.0625 19.1553 23.1244 19.3892 23.1265 19.6275L22.8115 20.0433Z" fill="#CE4E25"/>
<path d="M20.3131 23.1122L20.0377 23.4722L19.1377 22.619L19.3915 22.3148L19.9459 21.6956C20.0523 21.6907 20.1586 21.7082 20.2578 21.7469C20.357 21.7857 20.447 21.8448 20.5219 21.9206C20.6027 22.0122 20.661 22.1214 20.6923 22.2395C20.7235 22.3576 20.7268 22.4814 20.7019 22.601C20.5747 22.769 20.4451 22.9394 20.3131 23.1122Z" fill="#CE4E25"/>
<path d="M24.4838 27.7004C24.5774 27.794 24.6188 27.8012 24.6422 27.8624C24.6695 27.9355 24.6695 28.0161 24.6422 28.0892C24.6084 28.3637 24.5184 28.6283 24.3778 28.8664C24.2372 29.1046 24.049 29.3112 23.825 29.4734C23.5748 29.6418 23.2904 29.7526 22.9922 29.7977C22.694 29.8428 22.3894 29.8212 22.1006 29.7344C19.1822 26.7464 16.2644 23.756 13.3472 20.7632L15.977 22.6964L15.104 21.4832L16.9976 23.4488L16.535 23.3534C17.0284 24.216 17.7041 24.9605 18.515 25.535C18.8552 25.7732 19.2167 25.9793 19.595 26.1506L20.0954 26.7878L19.5752 26.6312L21.9872 28.8722L20.3204 26.948L22.2698 28.2368L21.5606 27.11L22.7612 27.929L21.107 25.931L23.0366 27.3296L18.3152 21.8324C21.5282 24.8618 23.8736 27.0794 24.0428 27.2468C24.1472 27.3512 24.2408 27.4502 24.4838 27.7004Z" fill="#CE4E25"/>
<path fill-rule="evenodd" clip-rule="evenodd" d="M13.2754 20.8327L13.4067 20.6826L15.3713 22.1431L14.4177 20.7567L16.0899 21.9943C16.4759 21.4479 16.8455 21.2119 17.1333 21.1178C17.2839 21.0686 17.4094 21.0592 17.4992 21.0628C17.5441 21.0647 17.5798 21.0697 17.6053 21.0746C17.618 21.0771 17.6282 21.0795 17.6356 21.0814L17.6447 21.0839L17.6476 21.0848L17.6487 21.0852C17.6488 21.0852 17.6495 21.0854 17.6184 21.1805L17.6487 21.0852L17.6709 21.0924L24.7497 27.7962L24.751 27.8374L24.651 27.8405C24.751 27.8374 24.751 27.8373 24.751 27.8374V27.8399L24.7511 27.8457L24.7512 27.8664C24.751 27.8842 24.7505 27.9097 24.7488 27.9417C24.7454 28.0057 24.7375 28.096 24.7196 28.203C24.6839 28.4163 24.6075 28.6994 24.4438 28.9723C24.2796 29.2464 24.0275 29.5096 23.6436 29.68C23.2604 29.85 22.7532 29.9241 22.0834 29.8332L22.0493 29.8285L13.2754 20.8327ZM24.5509 27.8834L17.5689 21.2713C17.5684 21.2712 17.568 21.2711 17.5675 21.271C17.5511 21.2678 17.5252 21.2641 17.4911 21.2627C17.4231 21.2599 17.3216 21.2667 17.1954 21.3079C16.9444 21.39 16.585 21.6122 16.1967 22.1919L16.1384 22.279L15.2608 21.6295L16.2188 23.0223L14.297 21.5937L22.1442 29.6395C22.7692 29.7196 23.2269 29.6461 23.5625 29.4971C23.9036 29.3458 24.1261 29.1134 24.2723 28.8695C24.4192 28.6245 24.4893 28.3673 24.5224 28.1699C24.5389 28.0715 24.546 27.9889 24.5491 27.9312C24.55 27.9125 24.5506 27.8964 24.5509 27.8834Z" fill="#5F2521"/>
<path fill-rule="evenodd" clip-rule="evenodd" d="M17.3336 23.8431C17.3852 23.821 17.445 23.8215 17.5028 23.8307C17.7284 23.8675 17.986 24.0244 18.2323 24.2246C18.4821 24.4276 18.7338 24.6861 18.9497 24.945C19.1651 25.2034 19.3482 25.4662 19.4584 25.6786C19.5129 25.7838 19.5531 25.8833 19.5676 25.9671C19.5807 26.0436 19.5787 26.1547 19.4806 26.2106C19.4276 26.2408 19.3685 26.2345 19.3254 26.2238C19.2791 26.2123 19.229 26.1903 19.1781 26.1628C19.0757 26.1075 18.9528 26.0206 18.8212 25.9154C18.5569 25.7043 18.2446 25.409 17.9682 25.1131C17.6931 24.8185 17.4472 24.5166 17.3208 24.2923C17.2889 24.2358 17.263 24.1813 17.2463 24.1312C17.2302 24.0828 17.2194 24.0288 17.2284 23.9772C17.2386 23.9183 17.2741 23.8685 17.3336 23.8431ZM19.3737 26.0297C19.3735 26.0228 19.3726 26.0135 19.3705 26.001C19.3612 25.9474 19.332 25.8694 19.2808 25.7707C19.1795 25.5754 19.0061 25.3249 18.7961 25.0731C18.5864 24.8216 18.3437 24.5728 18.1062 24.3798C17.8653 24.1841 17.6425 24.0563 17.4712 24.0282M19.3737 26.0297C19.3738 26.0298 19.3736 26.0297 19.3737 26.0297C19.3506 26.024 19.3171 26.0105 19.2732 25.9868C19.1861 25.9398 19.074 25.8614 18.946 25.7592C18.691 25.5555 18.3858 25.2672 18.1143 24.9766C17.8416 24.6845 17.6092 24.3968 17.495 24.1941C17.4667 24.1439 17.4473 24.1018 17.4361 24.0681C17.4295 24.0483 17.4267 24.0342 17.4257 24.0249" fill="#5F2521"/>
<path fill-rule="evenodd" clip-rule="evenodd" d="M24.9815 15.1812L25.0352 15.1863C25.3279 15.2141 25.5358 15.2936 25.6792 15.4065C25.8239 15.5205 25.8953 15.6623 25.9249 15.7986C25.9541 15.9329 25.9428 16.0609 25.9254 16.1532C25.9166 16.1997 25.906 16.2383 25.8976 16.2657C25.8933 16.2793 25.8895 16.2903 25.8867 16.2981L25.8833 16.3073L25.8822 16.3101L25.8817 16.3113C25.8817 16.3114 25.8816 16.3116 25.7889 16.2741L25.8817 16.3113L25.8762 16.3251L20.1844 23.434C20.1499 23.4771 20.0869 23.4841 20.0438 23.4495C20.0007 23.415 19.9938 23.3521 20.0283 23.309L25.7007 16.2243C25.7023 16.2196 25.7043 16.2135 25.7066 16.2063C25.7132 16.185 25.7217 16.1539 25.7289 16.1161C25.7433 16.0396 25.7511 15.9405 25.7295 15.8411C25.7083 15.7436 25.6588 15.645 25.5555 15.5637C25.4579 15.4869 25.3058 15.4204 25.0694 15.3912L19.2141 22.6799C19.1795 22.723 19.1166 22.7298 19.0735 22.6952C19.0305 22.6607 19.0236 22.5977 19.0582 22.5547L24.9815 15.1812Z" fill="#5F2521"/>
<path d="M8.41301 18.5851C8.56241 18.9811 8.75501 19.4851 9.12041 19.5517C9.21451 19.5622 9.30981 19.5494 9.39771 19.5142C9.48571 19.479 9.56351 19.4226 9.62441 19.3501C9.80441 19.1377 9.74861 18.8407 9.70541 18.6085C9.65141 18.3151 9.56501 18.2485 9.36521 17.7085C9.30401 17.5429 9.27881 17.4565 9.22661 17.2927C9.08081 16.8445 8.87921 16.2127 8.68661 15.7933C8.26541 14.8555 7.88921 14.8717 7.53821 13.9753C7.42252 13.6786 7.34275 13.3692 7.30061 13.0537C7.14735 13.5867 7.08229 14.1412 7.10801 14.6953C7.12241 15.0067 7.17461 16.0759 7.74881 16.9669C7.896 17.1736 8.02261 17.3943 8.12681 17.6257C8.30681 18.0469 8.25281 18.1567 8.41301 18.5851Z" fill="#EEF2EB"/>
<path d="M9.19625 19.6491C9.16695 19.6527 9.13735 19.6527 9.10806 19.6491C8.69766 19.5843 8.49246 19.0677 8.33226 18.6537V18.6285C8.27453 18.476 8.22996 18.3188 8.19906 18.1587C8.16743 17.9901 8.11607 17.8257 8.04606 17.6691C7.96462 17.4793 7.86389 17.2983 7.74546 17.1291L7.68066 17.0301C7.28466 16.4253 7.06506 15.6459 7.02006 14.7117C6.9985 14.1468 7.0653 13.582 7.21806 13.0377L7.33506 12.6021L7.40166 13.0485C7.44769 13.3559 7.52612 13.6576 7.63566 13.9485C7.75991 14.2732 7.94297 14.5722 8.17566 14.8305C8.4287 15.1048 8.63431 15.4193 8.78406 15.7611C8.95326 16.1445 9.12785 16.6827 9.26645 17.1147L9.31865 17.2695C9.36905 17.4333 9.39965 17.5179 9.45725 17.6799C9.54545 17.9283 9.61205 18.0741 9.66245 18.1929C9.72935 18.322 9.77905 18.4594 9.81005 18.6015V18.6393C9.85325 18.8697 9.89645 19.1793 9.70745 19.4187C9.64335 19.491 9.56465 19.549 9.47655 19.5887C9.38845 19.6284 9.29295 19.649 9.19625 19.6491ZM8.49966 18.5547V18.5763C8.64726 18.9507 8.82186 19.4079 9.12965 19.4601C9.14945 19.4617 9.16925 19.4617 9.18905 19.4601C9.25825 19.4567 9.32605 19.439 9.38805 19.408C9.45005 19.377 9.50485 19.3335 9.54905 19.2801C9.68945 19.1109 9.65165 18.8661 9.61565 18.6501C9.58745 18.5123 9.54335 18.3782 9.48425 18.2505C9.40475 18.0796 9.33385 17.9047 9.27185 17.7267C9.21245 17.5593 9.18365 17.4747 9.13145 17.3091L9.08106 17.1561C8.94284 16.704 8.78122 16.2594 8.59686 15.8241C8.45747 15.4974 8.26463 15.1963 8.02626 14.9331C7.77263 14.6625 7.57612 14.3435 7.44846 13.9953C7.38152 13.8305 7.32736 13.6608 7.28646 13.4877C7.2127 13.881 7.18312 14.2812 7.19826 14.6811C7.21054 15.4644 7.42774 16.2308 7.82826 16.9041L7.88766 17.0031C8.01333 17.1849 8.12123 17.3784 8.20986 17.5809C8.28563 17.7478 8.33947 17.9239 8.37006 18.1047C8.4003 18.2552 8.44181 18.4032 8.49426 18.5475L8.49966 18.5547Z" fill="#5F2521"/>
<path d="M9.23225 10.7315C9.05257 10.5406 8.89774 10.3277 8.77148 10.0979C8.39888 9.37792 8.07308 8.14496 8.70128 7.23776C9.09728 6.66896 9.85505 6.23696 10.2384 6.43676C10.5066 6.57536 10.4706 6.95876 10.8072 7.07396C11.0574 7.16036 11.2014 6.99116 11.4912 7.04516C11.6315 7.08518 11.762 7.15382 11.8745 7.24676C11.9869 7.3397 12.0789 7.45491 12.1446 7.58516" fill="#EEF2EB"/>
<path d="M9.15836 10.7909C8.9722 10.5983 8.81459 10.3801 8.69037 10.1429C8.25117 9.3005 8.00277 8.08546 8.62377 7.18366C8.95497 6.71206 9.55436 6.29446 10.008 6.29446C10.1053 6.29356 10.2012 6.31708 10.287 6.36286C10.4143 6.44346 10.5141 6.56084 10.5732 6.69946C10.595 6.76507 10.6303 6.8254 10.6768 6.87655C10.7233 6.9277 10.78 6.96855 10.8432 6.99646C10.9377 7.02 11.037 7.01625 11.1294 6.98566C11.2532 6.95277 11.3823 6.94481 11.5092 6.96226C11.781 7.01086 12.015 7.20166 12.2292 7.54186C12.2362 7.55231 12.2409 7.56406 12.2432 7.57639C12.2455 7.58873 12.2454 7.6014 12.2427 7.61366C12.24 7.62592 12.2349 7.63751 12.2276 7.64775C12.2203 7.65799 12.2111 7.66666 12.2004 7.67326C12.1783 7.68283 12.1537 7.68519 12.1301 7.68003C12.1065 7.67486 12.0851 7.66242 12.069 7.64446C11.889 7.34746 11.6874 7.18546 11.475 7.14586C11.3746 7.12701 11.2711 7.13445 11.1744 7.16746C11.0463 7.209 10.9083 7.209 10.7802 7.16746C10.6933 7.1339 10.6144 7.08242 10.5486 7.01636C10.4829 6.95031 10.4318 6.87116 10.3986 6.78406C10.3574 6.67974 10.2859 6.59011 10.1934 6.52666C10.1376 6.49881 10.0758 6.4852 10.0134 6.48706C9.65336 6.48706 9.11337 6.83446 8.79117 7.29526C8.21337 8.12326 8.46897 9.3023 8.85777 10.0565C8.98139 10.2788 9.13126 10.4855 9.30416 10.6721L9.15836 10.7909Z" fill="#5F2521"/>
<path d="M11.9917 7.33317C11.5363 6.72297 11.2285 6.36297 11.2483 5.72757C11.2483 5.72757 10.7749 6.15957 10.8415 6.67977C10.9081 7.19997 10.1791 5.47557 10.9801 4.50537C10.8397 4.58457 8.46004 5.94537 8.70124 7.23777C8.76424 7.55997 9.04505 8.13777 9.43926 8.16297C9.56166 8.15795 9.68016 8.11891 9.78166 8.05023C9.88306 7.98155 9.96336 7.88595 10.0135 7.77417C10.0563 7.6906 10.0786 7.59806 10.0786 7.50417C10.0786 7.41028 10.0563 7.31773 10.0135 7.23417C9.97116 7.15507 9.90576 7.09068 9.82606 7.04954C9.74636 7.00839 9.65606 6.99243 9.56706 7.00377C9.50636 7.02407 9.45116 7.05798 9.40556 7.1029C9.36006 7.14783 9.32536 7.20258 9.30426 7.26297" fill="#EEF2EB"/>
<path d="M9.45881 8.25852H9.43001C8.95483 8.23872 8.66683 7.55833 8.60923 7.26313C8.33203 5.85913 10.9096 4.43893 10.9384 4.42453L11.356 4.20312L11.0554 4.56313C10.609 5.10313 10.6684 5.88793 10.771 6.34693C10.8462 6.08441 10.9897 5.84653 11.1868 5.65753L11.356 5.50812V5.73133C11.3416 6.28393 11.5828 6.60613 11.986 7.14073L12.0814 7.27573C12.097 7.29537 12.1042 7.32034 12.1015 7.34527C12.0988 7.3702 12.0864 7.39307 12.067 7.40893C12.0076 7.43053 11.9572 7.43052 11.9338 7.38552L11.8168 7.26313C11.4568 6.79153 11.2174 6.45853 11.1652 5.97793C11.0019 6.17323 10.9207 6.42418 10.9384 6.67812C10.9384 6.73212 10.96 6.83833 10.8736 6.87073L10.807 6.89773L10.7332 6.82032C10.5935 6.5034 10.5178 6.162 10.5103 5.81573C10.5029 5.46945 10.564 5.12514 10.69 4.80253C10.024 5.23093 8.60923 6.26773 8.80003 7.22713C8.85223 7.52773 9.11503 8.06593 9.43721 8.07673H9.45881C9.56031 8.06691 9.65731 8.02998 9.73971 7.96982C9.82201 7.90965 9.88661 7.82844 9.92681 7.73472C9.96261 7.66609 9.98131 7.58984 9.98131 7.51243C9.98131 7.43502 9.96261 7.35875 9.92681 7.29012C9.89751 7.23542 9.85591 7.18828 9.80531 7.15236C9.75481 7.11645 9.69651 7.09275 9.63521 7.08313C9.61781 7.08196 9.60041 7.08196 9.58301 7.08313C9.53521 7.1005 9.49241 7.12924 9.45821 7.16687C9.42401 7.20451 9.39951 7.24989 9.38681 7.29912L9.20681 7.22892C9.23191 7.15474 9.27421 7.08753 9.33021 7.03279C9.38611 6.97805 9.45431 6.93732 9.52901 6.91393C9.56041 6.90718 9.59231 6.90356 9.62441 6.90313C9.71881 6.90929 9.81001 6.93949 9.88941 6.99084C9.96881 7.04219 10.0337 7.11299 10.078 7.19652C10.1322 7.28753 10.1631 7.39046 10.1681 7.49623C10.1731 7.60201 10.1521 7.7074 10.1068 7.80313C10.0492 7.9299 9.95871 8.03896 9.84481 8.11903C9.73091 8.1991 9.59761 8.24725 9.45881 8.25852Z" fill="#5F2521"/>
<path d="M20.1242 12.2668C20.0412 12.0125 19.9043 11.7792 19.7228 11.5828C19.3268 11.1616 18.9416 11.1796 18.4736 10.7116C18.3274 10.561 18.2005 10.3929 18.0956 10.2112C17.7554 9.67124 16.8968 8.32479 15.5954 7.62819C15.5 7.57779 13.7666 6.68679 11.9954 7.33119L11.8514 7.38699C9.85336 8.21499 9.30976 10.4092 9.23596 10.7296C9.08748 11.4052 9.07098 12.1032 9.18736 12.7852C9.31956 13.7084 9.65876 14.5898 10.1797 15.3634C10.7005 16.1371 11.3896 16.783 12.1952 17.2528C12.6528 17.5074 13.1471 17.6895 13.6604 17.7928C14.4272 17.9728 14.8016 18.0988 15.2642 17.9728C15.6926 17.8594 15.7736 17.6704 16.0724 17.7154C16.5278 17.7874 16.5188 18.2554 17.021 18.3868C17.4116 18.484 17.561 18.232 18.0542 18.376C18.308 18.4516 18.3854 18.556 18.5312 18.52C18.7868 18.4606 18.9146 18.0574 18.9812 17.7136" fill="#EEF2EB"/>
<path d="M18.4756 18.6175C18.396 18.6123 18.3186 18.5895 18.2488 18.5509C18.1759 18.5159 18.1 18.4875 18.022 18.4663C17.8462 18.411 17.6578 18.411 17.482 18.4663C17.3224 18.5107 17.1544 18.5156 16.9924 18.4807C16.7731 18.418 16.5822 18.2812 16.4524 18.0937C16.4099 18.0214 16.3527 17.9589 16.2845 17.9102C16.2162 17.8616 16.1385 17.8278 16.0564 17.8111C15.9935 17.8007 15.9292 17.8032 15.8674 17.8183C15.8055 17.8335 15.7473 17.861 15.6964 17.8993C15.5639 17.9704 15.4238 18.0266 15.2788 18.0667C14.8324 18.1891 14.4886 18.0937 13.8874 17.9461L13.5652 17.8705C13.0665 17.7656 12.5873 17.5834 12.145 17.3305C11.3447 16.8681 10.6578 16.2328 10.1344 15.4711C9.5869 14.6724 9.2286 13.7595 9.08679 12.8017C8.97656 12.1066 8.99364 11.3972 9.1372 10.7083C9.2398 10.2835 9.82659 8.12525 11.8102 7.30265C11.8604 7.27932 11.9121 7.25947 11.965 7.24325C13.765 6.58085 15.565 7.50785 15.6406 7.54745C16.9888 8.26745 17.8528 9.64628 18.175 10.1611L18.2254 10.2457C18.3154 10.3911 18.4211 10.5263 18.5404 10.6489C18.7277 10.8287 18.9429 10.9771 19.1776 11.0881C19.4044 11.1933 19.6105 11.3384 19.786 11.5165C19.9778 11.7231 20.1227 11.9687 20.2108 12.2365C20.2148 12.2479 20.2164 12.2601 20.2156 12.2722C20.2149 12.2843 20.2117 12.2961 20.2064 12.307C20.201 12.3179 20.1936 12.3276 20.1844 12.3355C20.1753 12.3435 20.1647 12.3496 20.1532 12.3535C20.1226 12.3715 20.0578 12.3535 20.0344 12.2941C19.9576 12.0525 19.8279 11.8311 19.6546 11.6461C19.4903 11.4839 19.2999 11.3506 19.0912 11.2519C18.8392 11.1329 18.6087 10.9729 18.409 10.7785C18.2797 10.6487 18.1667 10.5036 18.0724 10.3465L18.013 10.2619C17.6998 9.75428 16.8574 8.40605 15.5524 7.71305C15.5308 7.70225 13.8028 6.77705 12.0226 7.41785L11.884 7.47545C9.9796 8.26565 9.4162 10.3411 9.328 10.7515C9.1807 11.4157 9.1636 12.1021 9.2776 12.7729C9.4113 13.68 9.74709 14.5455 10.2603 15.3054C10.7734 16.0652 11.4507 16.7001 12.2422 17.1631C12.6727 17.4026 13.1369 17.5756 13.6192 17.6761L13.9414 17.7535C14.521 17.8957 14.8414 17.9839 15.2464 17.8741C15.3767 17.8387 15.502 17.7867 15.619 17.7193C15.6859 17.6711 15.7619 17.6371 15.8424 17.6195C15.9229 17.6018 16.0061 17.6009 16.087 17.6167C16.192 17.6362 16.2918 17.6774 16.3801 17.7375C16.4684 17.7976 16.5433 17.8753 16.6 17.9659C16.7051 18.1204 16.8602 18.2342 17.0392 18.2881C17.1728 18.3191 17.3124 18.3122 17.4424 18.2683C17.6507 18.2092 17.8713 18.2092 18.0796 18.2683C18.1641 18.2947 18.247 18.326 18.328 18.3619C18.3831 18.3925 18.4449 18.4092 18.508 18.4105C18.6178 18.3853 18.7798 18.2305 18.8824 17.6779C18.8881 17.6565 18.9004 17.6376 18.9175 17.6237C18.9346 17.6097 18.9558 17.6016 18.9778 17.6005H18.9922C19.0169 17.6053 19.0388 17.6193 19.0535 17.6397C19.0682 17.6601 19.0746 17.6853 19.0714 17.7103C18.9688 18.2503 18.7942 18.5347 18.553 18.5905C18.5285 18.6028 18.5025 18.6119 18.4756 18.6175Z" fill="#5F2521"/>
<path d="M22.5269 18.7958C22.5485 18.839 22.5809 18.8984 22.6241 18.9758C22.7771 19.2296 22.9607 19.532 23.2793 19.6436C23.3445 19.6738 23.4154 19.6895 23.4872 19.6895C23.5591 19.6895 23.63 19.6738 23.6951 19.6436C23.8877 19.5194 23.8643 19.1936 23.8571 19.0784C23.8364 18.8463 23.7585 18.6231 23.6303 18.4286C23.4076 18.043 23.2133 17.6418 23.0489 17.228C23.0136 17.5998 22.9213 17.9641 22.7753 18.308C22.7056 18.4769 22.6225 18.64 22.5269 18.7958Z" fill="#EEF2EB"/>
<path d="M23.5205 19.7857C23.4276 19.7829 23.336 19.7627 23.2505 19.7262C22.8905 19.602 22.6925 19.2762 22.5305 19.0152C22.494 18.9578 22.4621 18.8976 22.4351 18.8352L22.4062 18.7902L22.4351 18.7435C22.5269 18.593 22.6076 18.4359 22.6763 18.2736C22.8197 17.9356 22.909 17.5773 22.9409 17.2116L22.9769 16.8354L23.1227 17.1954C23.2859 17.6071 23.4796 18.006 23.7023 18.3888C23.8391 18.5956 23.9198 18.8345 23.9363 19.0819C23.9507 19.2205 23.9723 19.5804 23.7311 19.7298C23.667 19.7663 23.5944 19.7856 23.5205 19.7857ZM22.6349 18.7992C22.6529 18.8401 22.6746 18.8794 22.6997 18.9163C22.8401 19.1557 23.0147 19.4437 23.3081 19.5499C23.4121 19.5959 23.5295 19.6016 23.6375 19.566C23.7995 19.467 23.7617 19.1521 23.7545 19.0891C23.7392 18.8732 23.6685 18.6648 23.5493 18.4842C23.3809 18.192 23.2271 17.8916 23.0885 17.5842C23.0406 17.8489 22.9646 18.1078 22.8617 18.3564C22.7944 18.508 22.7187 18.6559 22.6349 18.7992Z" fill="#5F2521"/>
<path d="M21.5677 12.7209C21.5912 12.2594 21.5664 11.7967 21.4939 11.3403C21.3877 10.6635 21.2635 10.5591 20.9863 9.60507C20.6893 8.5737 20.6533 8.0643 20.2393 7.0671C20.1349 6.8151 19.8793 6.2283 19.6237 6.1923C19.3681 6.1563 19.1305 6.4641 18.9829 6.9645C18.7702 7.56569 18.7457 8.21744 18.9127 8.8329C19.1827 9.87327 19.9189 10.8687 20.1493 11.1459C20.3115 11.3377 20.4389 11.5564 20.5255 11.7921C20.5814 11.9479 20.6183 12.1099 20.6353 12.2745" fill="#EEF2EB"/>
<path d="M21.5656 12.8163C21.5406 12.8136 21.5176 12.8015 21.5012 12.7824C21.4849 12.7634 21.4763 12.7388 21.4774 12.7137C21.5048 12.26 21.48 11.8046 21.4036 11.3565C21.3591 11.0488 21.2807 10.7469 21.1696 10.4565C21.0958 10.2549 21.0166 10.0137 20.9068 9.63567C20.797 9.25767 20.7268 8.98047 20.6566 8.70327C20.5355 8.1594 20.3693 7.62656 20.1598 7.11027C19.8664 6.39027 19.6684 6.29667 19.6198 6.28947H19.591C19.411 6.28947 19.2112 6.56127 19.078 6.99687L19.0636 7.05807C18.8766 7.62698 18.8591 8.23799 19.0132 8.81667C19.3282 10.0029 20.2282 11.0829 20.2354 11.0901C20.3973 11.2924 20.525 11.5198 20.6134 11.7633C20.6714 11.9261 20.7094 12.0953 20.7268 12.2673C20.7279 12.2924 20.7193 12.317 20.703 12.336C20.6866 12.3551 20.6636 12.3672 20.6386 12.3699C20.6147 12.3692 20.5919 12.3598 20.5744 12.3436C20.5569 12.3274 20.5458 12.3054 20.5432 12.2817C20.5326 12.1249 20.498 11.9707 20.4406 11.8245C20.3585 11.6064 20.2412 11.4033 20.0932 11.2233C19.5204 10.5263 19.0921 9.72227 18.8332 8.85807C18.6619 8.24772 18.6776 7.60003 18.8782 6.99867L18.8998 6.94287C19.0672 6.36507 19.3318 6.04287 19.6468 6.10407C19.726 6.11487 19.9762 6.14907 20.3344 7.03467C20.5499 7.55889 20.7192 8.10096 20.8402 8.65467C20.9068 8.93007 20.9788 9.22347 21.0814 9.58167C21.184 9.93987 21.2794 10.1937 21.346 10.3917C21.4628 10.6937 21.5461 11.0076 21.5944 11.3277C21.6709 11.7909 21.6956 12.2612 21.6682 12.7299C21.6651 12.7546 21.6528 12.7771 21.6338 12.7931C21.6148 12.8091 21.5904 12.8174 21.5656 12.8163Z" fill="#5F2521"/>
<path d="M13.012 14.9707C12.9816 15.2387 13.0202 15.51 13.1242 15.7589C13.2282 16.0078 13.394 16.226 13.606 16.3927L14.4268 16.9831" fill="#EEF2EB"/>
<path d="M14.4269 17.0859C14.406 17.0849 14.3855 17.0787 14.3675 17.0679C14.0903 16.8663 13.8275 16.6683 13.5485 16.4667C13.3254 16.292 13.1512 16.0626 13.0427 15.8007C12.9311 15.5348 12.8883 15.2451 12.9186 14.9583C12.9212 14.9351 12.9325 14.9137 12.9502 14.8984C12.9678 14.883 12.9906 14.8749 13.0139 14.8755C13.0394 14.8782 13.0628 14.8909 13.079 14.9108C13.0952 14.9307 13.1029 14.9562 13.1003 14.9817C13.0736 15.2349 13.114 15.4906 13.2173 15.7233C13.3107 15.956 13.4649 16.1592 13.6637 16.3119L14.4827 16.9095C14.4926 16.9169 14.5009 16.9262 14.5071 16.9369C14.5133 16.9476 14.5173 16.9595 14.5188 16.9717C14.5203 16.984 14.5194 16.9965 14.5159 17.0083C14.5125 17.0202 14.5067 17.0313 14.4989 17.0409C14.4917 17.0538 14.4813 17.0648 14.4687 17.0726C14.4561 17.0805 14.4418 17.0851 14.4269 17.0859Z" fill="#5F2521"/>
<path d="M13.585 15.5253C13.1712 15.2418 12.8595 14.8329 12.6958 14.3589C12.5924 14.0447 12.5586 13.7118 12.5968 13.3833" fill="#EEF2EB"/>
<path d="M13.5828 15.6224C13.564 15.6203 13.546 15.6135 13.5306 15.6026C13.1015 15.3064 12.7785 14.8806 12.609 14.3876C12.5048 14.0599 12.4675 13.7147 12.4992 13.3724C12.5018 13.3492 12.5131 13.3278 12.5308 13.3125C12.5484 13.2971 12.5712 13.289 12.5946 13.2896C12.62 13.2927 12.6433 13.3055 12.6597 13.3252C12.6761 13.3449 12.6843 13.3702 12.6828 13.3958C12.647 13.7097 12.6789 14.0276 12.7764 14.3282C12.9336 14.7825 13.2311 15.1752 13.626 15.4496C13.6365 15.4558 13.6456 15.4642 13.6529 15.474C13.6601 15.4839 13.6653 15.4951 13.6682 15.507C13.671 15.5189 13.6715 15.5313 13.6695 15.5434C13.6675 15.5555 13.6631 15.567 13.6566 15.5774C13.648 15.5896 13.6371 15.5998 13.6244 15.6076C13.6117 15.6153 13.5975 15.6204 13.5828 15.6224Z" fill="#5F2521"/>
<path d="M14.2002 15.5881C14.021 15.2008 13.8084 14.8298 13.5648 14.4793C13.4028 14.2349 13.2223 14.0032 13.0248 13.7863C12.7422 13.4839 12.6648 13.4659 12.4848 13.2463C12.285 12.9907 11.9754 12.4723 12.1032 12.3247C12.321 12.0691 13.9986 12.7477 14.9958 14.0887C15.4518 14.7123 15.749 15.4377 15.8616 16.2019" fill="#EEF2EB"/>
<path d="M15.8528 16.2991C15.8299 16.299 15.8078 16.2908 15.7903 16.276C15.7729 16.2612 15.7612 16.2407 15.7574 16.2181C15.652 15.4685 15.3626 14.7567 14.915 14.1463C14.0654 13.0105 12.755 12.3877 12.287 12.3697H12.2672C12.1934 12.3697 12.1646 12.3841 12.1646 12.3913C12.1052 12.4543 12.2888 12.8611 12.5444 13.1905C12.6136 13.2779 12.6921 13.3576 12.7784 13.4281C12.8522 13.4983 12.9476 13.5775 13.079 13.7215C13.2852 13.9396 13.4713 14.1757 13.6352 14.4271C13.8835 14.78 14.1015 15.1534 14.2868 15.5431C14.292 15.5546 14.2948 15.5671 14.295 15.5797C14.2952 15.5924 14.2928 15.6049 14.2879 15.6166C14.283 15.6283 14.2757 15.6388 14.2665 15.6475C14.2574 15.6562 14.2465 15.663 14.2346 15.6673C14.2121 15.6758 14.1874 15.6761 14.1647 15.6682C14.142 15.6603 14.1228 15.6447 14.1104 15.6241C13.9366 15.2405 13.7282 14.8736 13.4876 14.5279C13.3259 14.2872 13.1453 14.0597 12.9476 13.8475C12.8569 13.7475 12.7607 13.6526 12.6596 13.5631C12.5643 13.4859 12.4785 13.3977 12.404 13.3003C12.404 13.3003 11.8028 12.5245 12.0224 12.2599C12.0561 12.2314 12.095 12.2099 12.1371 12.1967C12.1791 12.1834 12.2233 12.1786 12.2672 12.1825H12.2888C12.8072 12.2023 14.177 12.8431 15.0626 14.0365C15.532 14.6721 15.8363 15.4143 15.9482 16.1965C15.9495 16.2097 15.948 16.223 15.9437 16.2355C15.9395 16.2481 15.9326 16.2596 15.9236 16.2693C15.9146 16.279 15.9036 16.2866 15.8914 16.2918C15.8792 16.2969 15.8661 16.2994 15.8528 16.2991Z" fill="#5F2521"/>
<path d="M9.28829 12.5624C8.69972 12.2312 8.38832 12.2852 8.20832 12.3824C7.52972 12.7424 7.72772 14.465 8.15432 15.581C8.26772 15.8816 9.00212 17.8094 10.6617 18.1874C10.8615 18.2324 11.8137 18.425 12.1845 17.9498C12.5301 17.5052 12.1845 16.6898 11.9415 16.1138C11.7541 15.6677 11.5011 15.2521 11.1909 14.8808" fill="#EEF2EB"/>
<path d="M11.3276 18.3493C11.098 18.347 10.8692 18.3199 10.6454 18.2683C9.02544 17.9083 8.26585 16.1371 8.07505 15.6061C7.64305 14.4685 7.43784 12.6811 8.17044 12.2887C8.46384 12.1429 8.85264 12.2095 9.33499 12.4831C9.34619 12.4887 9.3561 12.4966 9.364 12.5062C9.3719 12.5158 9.37779 12.527 9.38119 12.539C9.38459 12.5511 9.3854 12.5637 9.3837 12.576C9.3819 12.5884 9.3776 12.6003 9.371 12.6109C9.3587 12.6314 9.33889 12.6464 9.31579 12.6527C9.29269 12.6591 9.268 12.6564 9.2468 12.6451C8.81485 12.4021 8.48544 12.3337 8.25864 12.4651C7.65024 12.7873 7.84824 14.4793 8.25864 15.5485C8.39004 15.9085 9.1298 17.7373 10.6976 18.0937C10.8776 18.1369 11.7957 18.3205 12.1251 17.8885C12.4401 17.4889 12.0963 16.6825 11.8695 16.1479C11.6823 15.7122 11.4357 15.3046 11.1369 14.9365C11.1214 14.9171 11.1142 14.8924 11.1169 14.8678C11.1196 14.8432 11.1319 14.8206 11.1513 14.8051C11.1801 14.7691 11.2466 14.7799 11.2826 14.8195C11.5961 15.2004 11.8526 15.6248 12.0441 16.0795C12.3015 16.6861 12.6597 17.5195 12.2727 18.0091C12.0531 18.2755 11.6715 18.3493 11.3276 18.3493Z" fill="#5F2521"/>
<path d="M14.6251 16.263C14.6698 16.3217 14.7311 16.3658 14.801 16.3895C14.8709 16.4132 14.9463 16.4155 15.0175 16.3962C15.0909 16.3583 15.1509 16.2988 15.1892 16.2257C15.2275 16.1526 15.2424 16.0694 15.2317 15.9876C15.2113 15.8343 15.1345 15.6941 15.0164 15.5943C14.8983 15.4945 14.7473 15.4422 14.5927 15.4476C14.4597 15.4678 14.3357 15.5273 14.2367 15.6183C14.1376 15.7094 14.0679 15.8279 14.0365 15.9588C13.9285 16.3728 14.2471 16.7778 14.4271 16.983C15.1455 17.8501 15.9073 18.6803 16.7095 19.4706C17.2765 20.0375 18.3061 21.0761 19.2529 21.6611C19.2871 21.6827 19.2673 21.6611 19.5103 21.8051C20.3743 22.2893 20.6083 22.4351 20.9287 22.4117C20.9915 22.4136 21.054 22.4024 21.1123 22.3789C21.1705 22.3553 21.2233 22.3199 21.2671 22.2749C21.3049 22.2238 21.3319 22.1656 21.3465 22.1037C21.361 22.0418 21.3628 21.9776 21.3517 21.9149C21.3157 21.5387 20.9701 21.2129 20.3581 20.6981C19.7965 20.2265 19.6273 20.1149 19.4725 19.962C19.4293 19.917 19.3987 19.8845 19.3573 19.8359C19.0784 19.5581 18.8901 19.2023 18.8173 18.8154C18.7965 18.6401 18.8081 18.4626 18.8515 18.2916" fill="#EEF2EB"/>
<path d="M20.8475 22.5161C20.5685 22.5161 20.3201 22.3775 19.6325 21.9923L19.4633 21.8933C19.2293 21.7655 19.2221 21.7619 19.2005 21.7475C18.3005 21.1877 17.3105 20.2139 16.7237 19.6343L16.5995 19.5065C15.8084 18.7266 15.058 17.9065 14.3513 17.0495C14.1911 16.8587 13.8113 16.4087 13.9481 15.9407C13.9835 15.7913 14.0633 15.6561 14.1771 15.5529C14.2908 15.4498 14.4331 15.3835 14.5853 15.3629C14.7701 15.36 14.9497 15.4239 15.0911 15.5429C15.1584 15.5972 15.214 15.6647 15.2545 15.7411C15.295 15.8175 15.3197 15.9013 15.3269 15.9875C15.3386 16.0896 15.3181 16.1928 15.2685 16.2828C15.2188 16.3728 15.1423 16.4451 15.0497 16.4897C14.9599 16.5146 14.8647 16.5125 14.7761 16.4837C14.6874 16.4549 14.6092 16.4006 14.5511 16.3277C14.5356 16.3083 14.5285 16.2836 14.5312 16.259C14.5339 16.2344 14.5462 16.2118 14.5655 16.1963C14.5943 16.1531 14.6537 16.1639 14.6969 16.1963C14.7851 16.2917 14.8949 16.3493 14.9903 16.3061C15.0857 16.2629 15.1451 16.0901 15.1361 15.9911C15.1228 15.8701 15.0619 15.7594 14.9669 15.6833C14.876 15.5964 14.756 15.5464 14.6303 15.5429C14.6225 15.5419 14.6147 15.5419 14.6069 15.5429C14.4934 15.563 14.3882 15.6155 14.3039 15.6941C14.2196 15.7727 14.1598 15.8739 14.1317 15.9857C14.0363 16.3547 14.3657 16.7543 14.5061 16.9271C15.4133 18.0629 16.4069 19.0493 16.7309 19.3751L16.8569 19.4993C17.4347 20.0735 18.4085 21.0401 19.3031 21.5855C19.3796 21.6437 19.463 21.6921 19.5515 21.7295L19.7315 21.8285C20.4407 22.2263 20.6603 22.3523 20.9177 22.3217C20.9684 22.324 21.0191 22.3161 21.0667 22.2985C21.1143 22.2808 21.1579 22.2539 21.1949 22.2191C21.2235 22.1781 21.2434 22.1318 21.2536 22.0829C21.2638 22.0341 21.2641 21.9837 21.2543 21.9347C21.2255 21.5747 20.8583 21.2489 20.3021 20.7809L19.7387 20.3165C19.6231 20.2293 19.5131 20.1349 19.4093 20.0339C19.3628 19.9947 19.3205 19.9506 19.2833 19.9025C18.993 19.6113 18.7989 19.2381 18.7271 18.8333C18.7057 18.6461 18.721 18.4566 18.7721 18.2753C18.7721 18.2249 18.8225 18.2069 18.8819 18.2069C18.8937 18.21 18.9047 18.2154 18.9143 18.2228C18.9239 18.2303 18.932 18.2395 18.938 18.2501C18.944 18.2606 18.9479 18.2722 18.9494 18.2843C18.9509 18.2964 18.95 18.3086 18.9467 18.3203C18.9088 18.4806 18.8991 18.6463 18.9179 18.8099C18.9816 19.18 19.1613 19.5204 19.4309 19.7819C19.4603 19.8238 19.4947 19.8619 19.5335 19.8953C19.6217 19.9817 19.7135 20.0483 19.8557 20.1689C19.9979 20.2895 20.1635 20.4137 20.4191 20.6351C21.0131 21.1319 21.4001 21.4919 21.4451 21.9167C21.4586 21.9907 21.4564 22.0668 21.4387 22.1399C21.421 22.2131 21.3883 22.2817 21.3425 22.3415C21.2326 22.4488 21.0857 22.51 20.9321 22.5125L20.8475 22.5161Z" fill="#5F2521"/>
<path d="M17.7701 13.9881L17.9501 13.1673C17.7816 12.7025 17.5444 12.2656 17.2463 11.8713C16.7963 11.2809 16.5659 11.2665 16.1429 10.7913C15.51 10.0363 15.1386 9.09659 15.0845 8.11289C15.0687 7.60806 15.1294 7.10376 15.2645 6.61709L15.3041 6.48389L15.4589 6.52889C15.8054 6.64712 16.1324 6.81638 16.4291 7.03109C17.0663 7.50989 17.5091 8.57369 17.5091 8.57369C17.9807 9.72033 18.5099 11.0379 19.0679 12.5337C19.2741 12.4472 19.4881 12.3803 19.7069 12.3339C19.9581 12.2789 20.2148 12.253 20.4719 12.2565C21.1667 12.2853 21.7319 12.8271 21.9317 13.0323C23.6003 14.6523 23.0351 17.5233 22.9775 17.7465C22.887 18.1174 22.7394 18.472 22.5401 18.7977C22.369 19.0853 22.1131 19.3129 21.8075 19.4493C21.2225 19.6959 20.5943 19.3917 20.1497 19.1739C19.7681 18.9939 18.6107 18.4179 18.0761 17.2371C17.8961 16.8519 17.7503 16.3065 17.2067 15.7683C17.0991 15.6619 16.9843 15.5633 16.8629 15.4731L17.2499 15.4407L17.7899 15.7053" fill="#EEF2EB"/>
<path d="M21.3461 19.6343C20.8691 19.6343 20.4227 19.4075 20.1149 19.2581C19.0817 18.7595 18.3653 18.0935 17.9909 17.2781L17.9027 17.0657C17.7469 16.6044 17.4891 16.1842 17.1485 15.8363C17.0444 15.7328 16.9318 15.6383 16.8119 15.5537L16.6139 15.4079L17.2817 15.3449L17.3069 15.3629C17.4869 15.4547 17.6669 15.5429 17.8469 15.6311C17.8687 15.6423 17.8853 15.6614 17.8933 15.6846C17.9014 15.7077 17.9002 15.733 17.8901 15.7553C17.8761 15.776 17.8555 15.7914 17.8318 15.7992C17.808 15.8071 17.7823 15.8068 17.7587 15.7985C17.5787 15.7139 17.4149 15.6311 17.2457 15.5429L17.1215 15.5573C17.1737 15.6005 17.2313 15.6527 17.2907 15.7103C17.6486 16.077 17.9209 16.5184 18.0881 17.0027C18.1169 17.0729 18.1475 17.1431 18.1763 17.2079C18.5363 17.9819 19.2167 18.6191 20.2121 19.0979C20.6153 19.2995 21.2147 19.6073 21.7871 19.3697C22.0655 19.2355 22.2975 19.0211 22.4531 18.7541C22.6469 18.4374 22.7902 18.0925 22.8779 17.7317C22.8779 17.7029 23.5583 14.7617 21.8591 13.1039C21.6557 12.9059 21.1121 12.3839 20.4605 12.3605C20.4342 12.3587 20.4077 12.3587 20.3813 12.3605C20.1591 12.3643 19.9378 12.3902 19.7207 12.4379C19.5077 12.4808 19.2996 12.5453 19.0997 12.6305L19.0115 12.6683L18.9737 12.5765C18.4175 11.0861 17.8757 9.7523 17.4149 8.61649C17.4149 8.60569 16.9757 7.56889 16.3673 7.11529C16.0817 6.90358 15.7655 6.73666 15.4295 6.62029L15.3647 6.60229C15.358 6.61614 15.3525 6.6306 15.3485 6.64549C15.2241 7.12472 15.1702 7.61951 15.1883 8.11429C15.2361 9.07698 15.5992 9.9972 16.2215 10.7333C16.3602 10.8935 16.5145 11.0395 16.6823 11.1689C16.925 11.3566 17.1417 11.5758 17.3267 11.8205C17.6298 12.2235 17.8724 12.6686 18.0467 13.1417V13.1939L17.8667 14.0129C17.8523 14.0651 17.7929 14.1119 17.7497 14.0867C17.7256 14.0815 17.7045 14.0671 17.6907 14.0467C17.6769 14.0262 17.6717 14.0012 17.6759 13.9769L17.8559 13.1831C17.6878 12.7373 17.4588 12.3169 17.1755 11.9339C16.9987 11.7011 16.7917 11.4929 16.5599 11.3147C16.3817 11.1786 16.2171 11.0255 16.0685 10.8575C15.1379 9.8063 15.0137 8.49949 14.9885 8.12149C14.9672 7.60636 15.0279 7.09112 15.1685 6.59509C15.1752 6.54356 15.1924 6.49395 15.2189 6.44929L15.2495 6.37549L15.4763 6.44029C15.8358 6.56157 16.1741 6.7383 16.4789 6.96409C17.1305 7.44829 17.5589 8.49949 17.5841 8.54269C18.0395 9.6569 18.5669 10.9565 19.1087 12.4127C19.2914 12.3419 19.4799 12.2871 19.6721 12.2489C19.9324 12.1974 20.197 12.1703 20.4623 12.1679C21.1823 12.1967 21.7673 12.7547 21.9797 12.9635C23.7581 14.6987 23.0597 17.7443 23.0489 17.7785C22.9622 18.16 22.8138 18.5247 22.6097 18.8585C22.4326 19.1585 22.1692 19.3982 21.8537 19.5461C21.6922 19.6093 21.5195 19.6393 21.3461 19.6343Z" fill="#5F2521"/>
<path d="M17.6401 15.0967C17.7022 15.0819 17.7563 15.0439 17.7913 14.9905C17.8198 14.9219 17.8231 14.8454 17.8007 14.7746C17.7783 14.7038 17.7316 14.6432 17.6689 14.6035C17.6099 14.5644 17.5407 14.5435 17.47 14.5435C17.3992 14.5435 17.33 14.5644 17.2711 14.6035C17.2245 14.6411 17.1863 14.6881 17.159 14.7415C17.1318 14.7948 17.116 14.8533 17.1127 14.9131C17.1075 15.0167 17.1247 15.1202 17.1633 15.2165C17.2018 15.3128 17.2607 15.3996 17.3359 15.4711" fill="#EEF2EB"/>
<path d="M17.3323 15.5736C17.3072 15.5729 17.2834 15.5626 17.2657 15.5448C17.1804 15.4638 17.114 15.3651 17.0711 15.2556C17.0281 15.1461 17.0098 15.0285 17.0173 14.9112C17.0216 14.837 17.0423 14.7646 17.0777 14.6993C17.1132 14.634 17.1626 14.5772 17.2225 14.5332C17.2953 14.4814 17.3825 14.4536 17.4718 14.4536C17.5612 14.4536 17.6483 14.4814 17.7211 14.5332C17.8038 14.5862 17.8647 14.6672 17.8928 14.7613C17.9209 14.8554 17.9142 14.9565 17.8741 15.0462C17.8235 15.1149 17.7502 15.1634 17.6671 15.183H17.6383C17.6176 15.1838 17.5974 15.1771 17.5812 15.1643C17.565 15.1514 17.554 15.1331 17.5501 15.1128C17.5436 15.0894 17.5461 15.0644 17.5571 15.0428C17.5681 15.0211 17.5868 15.0043 17.6095 14.9958C17.6304 14.9928 17.6504 14.9853 17.6681 14.9738C17.6859 14.9623 17.7009 14.9471 17.7121 14.9292C17.7553 14.8644 17.7121 14.7312 17.6167 14.67C17.5733 14.641 17.5222 14.6256 17.47 14.6256C17.4178 14.6256 17.3668 14.641 17.3233 14.67C17.2863 14.699 17.2565 14.7363 17.2362 14.7787C17.2159 14.8212 17.2057 14.8677 17.2063 14.9148C17.2023 15.0038 17.2172 15.0927 17.2501 15.1756C17.283 15.2584 17.3331 15.3333 17.3971 15.3954C17.4095 15.4088 17.4179 15.4255 17.4211 15.4435C17.4243 15.4615 17.4223 15.48 17.4153 15.4969C17.4082 15.5137 17.3965 15.5282 17.3815 15.5387C17.3665 15.5491 17.3488 15.5549 17.3305 15.5556L17.3323 15.5736Z" fill="#5F2521"/>
<path d="M22.2696 18.5327C22.2462 18.617 22.2051 18.6953 22.1489 18.7624C22.0926 18.8295 22.0227 18.8837 21.9438 18.9215C21.849 18.9225 21.7554 18.9002 21.6713 18.8566C21.5872 18.813 21.5151 18.7493 21.4614 18.6713" fill="#EEF2EB"/>
<path d="M21.9169 19.0118C21.8141 19.0068 21.7136 18.9794 21.6225 18.9316C21.5314 18.8837 21.4519 18.8164 21.3895 18.7346C21.3741 18.7142 21.3671 18.6887 21.3697 18.6633C21.3724 18.6379 21.3846 18.6145 21.4039 18.5978C21.423 18.5821 21.4476 18.5746 21.4722 18.577C21.4968 18.5793 21.5195 18.5913 21.5353 18.6104C21.5799 18.6717 21.637 18.723 21.7027 18.7608C21.7684 18.7987 21.8414 18.8222 21.9169 18.83C21.9313 18.83 21.9313 18.83 21.9313 18.83C21.9914 18.7982 22.0439 18.754 22.0855 18.7003C22.1271 18.6466 22.1568 18.5846 22.1725 18.5186C22.18 18.494 22.1962 18.4729 22.218 18.4593C22.2399 18.4458 22.2659 18.4406 22.2913 18.4448C22.3151 18.4504 22.3358 18.4649 22.3492 18.4853C22.3626 18.5057 22.3676 18.5305 22.3633 18.5546C22.3358 18.6518 22.2885 18.7422 22.2244 18.8203C22.1603 18.8984 22.0807 18.9623 21.9907 19.0082C21.9663 19.0123 21.9416 19.0135 21.9169 19.0118Z" fill="#5F2521"/>
<path d="M21.8663 19.5211C21.8527 19.5204 21.8394 19.517 21.8272 19.511C21.815 19.5051 21.8041 19.4967 21.7952 19.4865C21.7863 19.4762 21.7796 19.4643 21.7754 19.4513C21.7712 19.4384 21.7697 19.4248 21.7709 19.4112L21.8501 18.9054C21.8591 18.8514 21.9239 18.7956 21.9599 18.8298C21.9722 18.8314 21.9841 18.8354 21.9949 18.8416C22.0057 18.8478 22.0151 18.8561 22.0227 18.8659C22.0302 18.8758 22.0357 18.8871 22.0388 18.8992C22.042 18.9112 22.0427 18.9237 22.0409 18.936L21.9599 19.44C21.9565 19.4625 21.9452 19.4829 21.928 19.4978C21.9109 19.5126 21.889 19.5209 21.8663 19.5211Z" fill="#5F2521"/>
<path d="M9.58519 14.7783C9.43039 14.3211 9.1262 14.0421 8.849 14.0583C8.71716 14.0766 8.59769 14.1457 8.51601 14.2509C8.12361 14.7387 8.7104 15.7395 8.7428 15.7953C8.91642 16.0781 9.14539 16.323 9.41599 16.5153C9.31519 16.3713 8.6384 15.3903 8.8238 14.8611C8.85076 14.7606 8.91518 14.6743 9.0038 14.6199C9.23959 14.5101 9.56719 14.7603 9.58519 14.7783Z" fill="#CE4E25"/>
<path d="M16.346 8.63103C16.6106 8.52151 16.6949 8.11851 16.5344 7.7309C16.374 7.34329 16.0294 7.11785 15.7649 7.22737C15.5004 7.33689 15.4159 7.73989 15.5764 8.1275C15.7369 8.51511 16.0815 8.74055 16.346 8.63103Z" fill="#CE4E25"/>
<path d="M19.8842 8.10561C20.0724 8.06834 20.1685 7.75274 20.0988 7.4007C20.0291 7.04866 19.82 6.79349 19.6318 6.83076C19.4436 6.86802 19.3475 7.18362 19.4172 7.53566C19.4869 7.8877 19.696 8.14287 19.8842 8.10561Z" fill="#CE4E25"/>
<path d="M19.9026 16.2632C20.3536 16.8767 20.6936 17.5646 20.907 18.2954C20.1405 17.9682 19.5021 17.3993 19.089 16.6754C18.7929 16.1471 18.6298 15.5547 18.6138 14.9492C19.1033 15.3242 19.5372 15.7666 19.9026 16.2632Z" fill="#CE4E25"/>
<path d="M19.8755 14.1389C19.8755 13.9949 19.8485 13.4855 20.1869 13.2389C20.2847 13.1788 20.3935 13.1389 20.507 13.1216C20.6205 13.1043 20.7362 13.1099 20.8475 13.1381C21.6179 13.3181 22.2119 14.4413 22.0373 15.1955C21.9687 15.3677 21.9297 15.5503 21.9221 15.7355C21.9221 15.9047 21.9779 16.3943 21.9923 16.5689C21.9999 16.6002 21.9999 16.6328 21.9924 16.6641C21.9849 16.6954 21.97 16.7244 21.9491 16.7489C21.9351 16.7599 21.9182 16.7668 21.9005 16.7687C21.7799 16.7831 21.7205 16.2539 21.3983 15.9479C21.2327 15.7877 21.1301 15.8147 20.8871 15.6923C20.6005 15.5406 20.3572 15.3183 20.1802 15.0465C20.0032 14.7748 19.8983 14.4624 19.8755 14.1389ZM21.5729 15.4241C21.8681 15.2585 21.8249 14.3315 21.3317 13.8203C21.0851 13.5647 20.6405 13.3235 20.4191 13.4711C20.1491 13.6511 20.2607 14.3711 20.5901 14.8427C20.8421 15.1991 21.3317 15.5591 21.5729 15.4241Z" fill="#CE4E25"/>
<path d="M18.9455 16.596C19.003 16.763 19.0953 16.916 19.2163 17.0448C19.3373 17.1735 19.4843 17.2752 19.6475 17.343C19.8321 17.4155 20.0318 17.4414 20.2289 17.4186C20.2729 17.2192 20.2777 17.0132 20.2433 16.812C20.2236 16.5383 20.103 16.2817 19.9049 16.092C19.5215 15.7824 18.9761 15.9732 18.9311 15.9894C18.8831 16.1894 18.8881 16.3984 18.9455 16.596Z" fill="#EEF2EB"/>
<path d="M20.0936 17.5233C19.9259 17.5245 19.7594 17.4952 19.6022 17.4369C19.4272 17.3619 19.2701 17.2506 19.1413 17.1103C19.0126 16.9701 18.915 16.8041 18.8552 16.6233C18.7965 16.4143 18.7915 16.1939 18.8408 15.9825V15.9339L18.8858 15.9159C18.9002 15.9159 19.5086 15.6711 19.9478 16.0329C20.161 16.2281 20.2938 16.4957 20.3204 16.7835C20.3627 17.0041 20.3627 17.2307 20.3204 17.4513L20.306 17.5161H20.2322C20.1872 17.5233 20.1368 17.5233 20.0936 17.5233ZM19.0316 16.5675C19.0843 16.7218 19.1689 16.8633 19.2799 16.9827C19.3909 17.1021 19.5259 17.1968 19.676 17.2605C19.8242 17.3212 19.9842 17.3476 20.144 17.3379C20.175 17.1707 20.175 16.9993 20.144 16.8321C20.1262 16.5834 20.0173 16.3501 19.838 16.1769C19.559 15.9501 19.1486 16.0365 19.01 16.0743C18.9779 16.2381 18.9853 16.4071 19.0316 16.5675Z" fill="#5F2521"/>
<path d="M21.3497 22.0485C21.2944 21.984 21.2342 21.9238 21.1697 21.8685C21.1044 21.814 21.0346 21.7652 20.9609 21.7227" fill="#EEF2EB"/>
<path fill-rule="evenodd" clip-rule="evenodd" d="M20.8743 21.6725C20.9019 21.6247 20.9631 21.6084 21.0109 21.636C21.0895 21.6814 21.164 21.7334 21.2337 21.7916L21.2347 21.7924C21.3031 21.851 21.3669 21.9149 21.4256 21.9833C21.4615 22.0252 21.4567 22.0884 21.4147 22.1243C21.3728 22.1602 21.3097 22.1554 21.2737 22.1135C21.2219 22.053 21.1655 21.9966 21.1051 21.9447C21.0443 21.8941 20.9793 21.8487 20.9108 21.8092C20.863 21.7815 20.8466 21.7204 20.8743 21.6725Z" fill="#5F2521"/>
<path d="M23.5708 19.6832C23.5377 19.5907 23.4998 19.5 23.4574 19.4114C23.4159 19.3237 23.3697 19.2384 23.3188 19.1558" fill="#EEF2EB"/>
<path fill-rule="evenodd" clip-rule="evenodd" d="M23.2663 19.0705C23.3134 19.0416 23.375 19.0562 23.4039 19.1033C23.4566 19.1889 23.5046 19.2774 23.5477 19.3683C23.5915 19.4599 23.6306 19.5537 23.6649 19.6493C23.6835 19.7013 23.6565 19.7586 23.6045 19.7772C23.5525 19.7959 23.4953 19.7688 23.4766 19.7168C23.4446 19.6276 23.4081 19.54 23.3671 19.4544C23.3271 19.37 23.2825 19.2876 23.2336 19.2081C23.2046 19.1611 23.2193 19.0995 23.2663 19.0705Z" fill="#5F2521"/>
<path d="M21.0975 22.3829C21.0495 22.3093 20.996 22.2395 20.9373 22.1741C20.8827 22.109 20.8224 22.0487 20.7573 21.9941" fill="#EEF2EB"/>
<path fill-rule="evenodd" clip-rule="evenodd" d="M20.6811 21.9297C20.7166 21.8874 20.7797 21.8819 20.822 21.9174C20.8911 21.9755 20.9551 22.0394 21.0132 22.1084C21.0749 22.1773 21.1312 22.2508 21.1816 22.3282C21.2118 22.3745 21.1987 22.4364 21.1525 22.4666C21.1062 22.4967 21.0443 22.4837 21.0141 22.4374C20.9689 22.3681 20.9185 22.3024 20.8632 22.2408L20.861 22.2383C20.81 22.1776 20.754 22.1215 20.6934 22.0706C20.6511 22.0351 20.6456 21.972 20.6811 21.9297Z" fill="#5F2521"/>
<path d="M9.16779 19.5283C9.13009 19.3195 9.06974 19.1155 8.98779 18.9199L9.16779 19.5283Z" fill="#EEF2EB"/>
<path fill-rule="evenodd" clip-rule="evenodd" d="M8.94909 18.8276C9.00003 18.8063 9.05862 18.8303 9.07996 18.8812C9.1647 19.0836 9.2271 19.2946 9.2661 19.5105C9.2759 19.5648 9.2398 19.6169 9.1855 19.6267C9.1311 19.6365 9.07913 19.6004 9.06932 19.546C9.03292 19.3444 8.97463 19.1474 8.89549 18.9585C8.87415 18.9076 8.89815 18.849 8.94909 18.8276Z" fill="#5F2521"/>
<path d="M9.59732 19.379C9.54892 19.1733 9.47832 18.9736 9.38672 18.7832L9.59732 19.379Z" fill="#EEF2EB"/>
<path fill-rule="evenodd" clip-rule="evenodd" d="M9.34374 18.693C9.39354 18.669 9.45324 18.69 9.47724 18.7397C9.57194 18.9366 9.64504 19.1433 9.69504 19.356C9.70774 19.4097 9.67434 19.4636 9.62064 19.4762C9.56684 19.4889 9.51304 19.4555 9.50034 19.4018C9.45364 19.2032 9.38544 19.0103 9.29704 18.8264C9.27304 18.7767 9.29404 18.7169 9.34374 18.693Z" fill="#5F2521"/>
<path d="M19.0942 16.5653C19.1356 17.0261 19.6 17.4527 19.8556 17.3663C20.0608 17.2979 20.095 16.9181 20.1022 16.8263C20.131 16.5167 20.0302 16.0631 19.7098 15.9371C19.6511 15.9112 19.5876 15.8979 19.5235 15.8979C19.4594 15.8979 19.3959 15.9112 19.3372 15.9371C19.0564 16.0829 19.0924 16.5437 19.0942 16.5653Z" fill="#5F2521"/>
</svg>
