<svg width="104" height="103" viewBox="0 0 104 103" fill="none" xmlns="http://www.w3.org/2000/svg">
<path opacity="0.15" d="M52.3789 101.485C24.9824 101.485 2.77148 79.2761 2.77148 51.8789C2.77148 24.4824 24.9824 2.27148 52.3789 2.27148C79.7761 2.27148 101.985 24.4824 101.985 51.8789C101.985 79.2761 79.7761 101.485 52.3789 101.485Z" fill="white"/>
<path opacity="0.65" d="M40.7754 30.7529C42.8498 31.9518 74.9858 50.5062 77.0609 51.7036C74.9865 52.901 42.8498 71.4546 40.7754 72.6527C40.7754 70.2572 40.7754 33.1492 40.7754 30.7529Z" fill="white"/>
<path d="M52.3789 2.27148C24.9824 2.27148 2.77148 24.4824 2.77148 51.8789C2.77148 79.2761 24.9824 101.485 52.3789 101.485C79.7761 101.485 101.985 79.2761 101.985 51.8789C101.985 24.4824 79.7761 2.27148 52.3789 2.27148ZM86.9202 86.4202C82.4337 90.906 77.2094 94.4277 71.393 96.8883C65.3705 99.4353 58.9731 100.727 52.3789 100.727C45.7838 100.727 39.3872 99.4353 33.3648 96.8883C27.5483 94.4277 22.3241 90.906 17.8375 86.4202C13.3509 81.9337 9.8285 76.7094 7.36786 70.893C4.82088 64.8705 3.52884 58.4731 3.52884 51.8789C3.52884 45.2846 4.82088 38.8872 7.3671 32.8648C9.8285 27.0483 13.3502 21.8241 17.8367 17.3375C22.3233 12.8509 27.5483 9.3285 33.3648 6.8671C39.3872 4.32088 45.7838 3.02884 52.3789 3.02884C58.9731 3.02884 65.3705 4.32088 71.393 6.8671C77.2094 9.3285 82.4337 12.8502 86.9202 17.3367C91.406 21.8233 94.9277 27.0475 97.3883 32.864C99.9353 38.8865 101.227 45.2838 101.227 51.8781C101.227 58.4724 99.9353 64.8697 97.3883 70.8922C94.9285 76.7094 91.406 81.9344 86.9202 86.4202Z" fill="white"/>
<path d="M40.0178 29.4424V73.9649L78.5754 51.704L40.0178 29.4424ZM40.7752 30.7534C42.8496 31.9522 74.9856 50.5066 77.0607 51.704C74.9863 52.9014 42.8496 71.455 40.7752 72.6532C40.7752 70.2576 40.7752 33.1496 40.7752 30.7534Z" fill="white"/>
</svg>
