<svg width="491" height="852" viewBox="0 0 491 852" fill="none" xmlns="http://www.w3.org/2000/svg">
<path d="M19.3759 19.1007C7.37774 31.1025 0.637541 47.3782 0.63754 64.3487C0.637539 81.3192 7.37773 97.595 19.3759 109.597L336.176 426.397L19.3759 743.197C7.71774 755.267 1.2669 771.434 1.41272 788.214C1.55853 804.995 8.28933 821.047 20.1555 832.913C32.0216 844.779 48.0736 851.51 64.8542 851.656C81.6348 851.802 97.8013 845.351 109.872 833.693L471.92 471.645C483.918 459.643 490.658 443.367 490.658 426.397C490.658 409.426 483.918 393.151 471.92 381.149L109.872 19.1007C97.8701 7.1026 81.5944 0.362409 64.6239 0.362408C47.6534 0.362407 31.3777 7.10259 19.3759 19.1007Z" fill="black"/>
</svg>
